<?xml version="1.0" standalone="no"?>
<!DOCTYPE svg PUBLIC "-//W3C//DTD SVG 20010904//EN"
 "http://www.w3.org/TR/2001/REC-SVG-20010904/DTD/svg10.dtd">
<svg version="1.0" xmlns="http://www.w3.org/2000/svg"
 width="100.000000pt" height="83.000000pt" viewBox="0 0 100.000000 83.000000"
 preserveAspectRatio="xMidYMid meet">
<metadata>
Created by potrace 1.15, written by Peter Selinger 2001-2017
</metadata>
<g transform="translate(0.000000,83.000000) scale(0.100000,-0.100000)"
fill="#000000" stroke="none">
<path d="M541 733 c-10 -4 -5 -10 15 -19 l29 -12 -39 -1 c-38 -1 -38 -1 -34
-37 4 -32 0 -39 -24 -54 -15 -9 -25 -20 -21 -23 3 -4 -3 -7 -15 -7 -28 0 -60
-48 -84 -123 -17 -55 -17 -63 -3 -73 13 -10 13 -13 1 -23 -17 -14 -26 12 -26
84 0 28 -5 57 -11 65 -8 11 -9 0 -5 -40 3 -30 6 -77 6 -104 0 -42 2 -47 15
-36 12 10 15 10 15 -3 0 -8 6 -18 13 -21 6 -3 -1 -3 -18 0 -16 3 -31 7 -32 8
-1 1 -6 46 -11 99 -5 54 -11 99 -13 101 -2 1 -58 0 -124 -4 -105 -6 -111 -7
-50 -10 55 -3 61 -4 25 -7 -88 -7 -93 -9 -86 -51 15 -86 18 -92 36 -92 10 0
22 -5 25 -10 4 -6 -5 -10 -20 -10 -15 0 -24 -4 -20 -10 3 -5 45 -10 93 -10 59
0 82 -3 72 -10 -10 -6 -4 -8 21 -4 44 7 100 -9 125 -37 17 -19 17 -19 -22 -3
-33 14 -49 15 -107 5 -38 -6 -81 -18 -96 -26 l-26 -14 32 -1 c17 0 35 -4 38
-10 4 -6 -13 -10 -44 -10 -37 0 -51 -4 -51 -14 0 -18 22 -26 71 -26 24 0 38
-4 34 -10 -3 -6 -17 -7 -31 -4 -29 7 -31 -7 -9 -50 9 -16 14 -30 13 -31 -2 0
-14 -6 -28 -12 -19 -8 -7 -9 55 -6 60 4 85 10 99 24 29 27 12 34 -22 9 -21
-16 -36 -20 -52 -15 -21 7 -21 8 -6 17 9 5 26 8 39 6 13 -2 21 2 20 9 -2 10
22 12 97 10 55 -2 102 -6 106 -10 13 -12 202 -8 210 5 5 7 11 5 21 -7 20 -28
16 -35 -19 -36 -18 -1 -1 -5 37 -9 107 -11 155 16 155 87 0 16 -7 38 -15 50
-12 16 -12 23 -2 26 12 6 -29 46 -47 47 -6 0 -1 -7 10 -16 17 -14 17 -15 1
-10 -10 3 -30 6 -43 6 -30 0 -32 17 -1 23 13 3 6 5 -17 6 -31 1 -36 4 -27 15
9 10 4 24 -21 61 -61 89 -98 90 -48 1 l32 -56 -14 -82 c-13 -81 -14 -83 -41
-82 -15 0 -58 1 -96 2 l-68 2 3 33 c1 17 10 49 18 69 9 21 16 47 16 58 0 11 7
20 15 20 19 0 19 4 -4 -63 -17 -47 -17 -57 -5 -57 7 0 14 -5 14 -11 0 -6 -9
-8 -21 -4 -17 6 -20 3 -17 -12 2 -14 14 -19 56 -21 58 -3 68 8 22 25 l-30 11
35 73 c48 100 47 105 -22 120 -113 23 -160 37 -130 38 21 1 28 5 25 19 -2 9
-13 18 -26 20 -18 3 -21 8 -16 30 9 36 17 44 38 36 13 -5 16 -14 12 -33 -3
-14 -3 -21 -1 -16 7 15 174 10 188 -5 9 -10 7 -11 -9 -6 -15 4 -24 2 -28 -9
-4 -12 2 -15 29 -15 32 0 35 3 35 28 l0 29 -72 -1 c-40 0 -83 6 -95 12 -22 12
-23 14 -7 50 30 70 30 69 11 53 -22 -17 -54 -7 -38 13 12 14 61 10 61 -5 0 -5
7 -9 15 -9 19 0 20 16 1 23 -7 3 -13 17 -13 31 0 22 4 26 28 26 40 0 36 25 -8
49 -23 12 -30 12 -52 4z"/>
</g>
</svg>
